<svg width="99" height="52" viewBox="0 0 99 52" fill="none" xmlns="http://www.w3.org/2000/svg">
<path d="M5.29999 27.1C3.79999 27.1 2.39999 26.5 1.39999 25.3C-0.600006 23.1 -0.400006 19.8 1.79999 17.8C27.9 -5.79999 70.2 -5.79999 96.3 17.8C98.5 19.8 98.6 23.1 96.7 25.3C94.7 27.5 91.4 27.6 89.2 25.7C67.1 5.70001 31.1 5.70001 8.99999 25.7C7.89999 26.6 6.59999 27.1 5.29999 27.1Z" fill="#1DB954"/>
<path d="M17.3 39C15.8 39 14.3 38.4 13.3 37.2C11.4 35 11.6 31.6 13.8 29.7C33.2 12.8 64.8 12.8 84.3 29.7C86.5 31.6 86.8 35 84.8 37.2C82.9 39.4 79.5 39.7 77.3 37.7C61.7 24.2 36.4 24.2 20.8 37.7C19.7 38.6 18.5 39 17.3 39Z" fill="#1DB954"/>
<path d="M68.8 51C67.6 51 66.5 50.6 65.5 49.9C56.6 42.8 41.4 42.8 32.5 49.9C30.2 51.7 26.9 51.3 25 49C23.2 46.7 23.6 43.4 25.9 41.5C38.9 31.3 59.1 31.3 72.1 41.5C74.4 43.3 74.8 46.7 73 49C71.9 50.3 70.4 51 68.8 51Z" fill="#1DB954"/>
</svg>
