<svg width="200" height="200" viewBox="0 0 200 200" fill="none" xmlns="http://www.w3.org/2000/svg">
<circle cx="100" cy="100" r="100" fill="#404665"/>
<circle cx="100" cy="100" r="95.5" stroke="black"/>
<circle cx="100" cy="100" r="91.5" stroke="black"/>
<circle cx="100" cy="100" r="87.5" stroke="black"/>
<circle cx="100" cy="100" r="83.5" stroke="black"/>
<circle cx="100" cy="100" r="79.5" stroke="black"/>
<circle cx="100" cy="100" r="75.5" stroke="black"/>
<circle cx="100" cy="100" r="71.5" stroke="black"/>
<circle cx="100" cy="100" r="67.5" stroke="black"/>
<circle cx="100" cy="100" r="63.5" stroke="black"/>
<circle cx="100" cy="100" r="59.5" stroke="black"/>
<circle cx="100" cy="100" r="55.5" stroke="black"/>
<circle cx="100" cy="100" r="51.5" stroke="black"/>
<circle cx="100" cy="100" r="47.5" stroke="black"/>
<circle cx="100" cy="100" r="45" fill="#07DB29"/>
<mask id="mask0_18_10" style="mask-type:alpha" maskUnits="userSpaceOnUse" x="55" y="55" width="90" height="90">
<circle cx="100" cy="100" r="45" fill="#ABABAB"/>
</mask>
<g mask="url(#mask0_18_10)">
<rect x="55" y="64" width="90" height="9" fill="white"/>
</g>
<circle cx="100" cy="100" r="6" fill="#B8D1DF"/>
</svg>
