<svg width="176" height="182" viewBox="0 0 176 182" fill="none" xmlns="http://www.w3.org/2000/svg">
<path d="M101.21 135.182L76.9549 153.924L65.32 125.565L34.9165 121.667L46.7418 93.3869L28 69.1315L56.3585 57.4967L60.2573 27.0931L65.3202 25.5L80.7564 31.1236C73.5503 25.5435 65.9434 23.8103 60.2573 27.0931C52.4479 31.6019 51.0214 43.976 56.3585 57.4967C41.9165 55.8409 30.3336 60.4226 28 69.1315C25.6664 77.8405 33.4091 87.6014 46.7418 93.3869C35.3594 102.428 30.4077 113.857 34.9165 121.667C39.4252 129.476 51.7993 130.902 65.32 125.565C63.6653 140.007 68.2442 151.59 76.9549 153.924C85.6639 156.257 95.4231 148.517 101.21 135.182C110.251 146.565 121.68 151.516 129.49 147.007C137.298 142.499 138.726 130.125 133.389 116.604C147.831 118.26 159.413 113.678 161.747 104.969C162.833 100.914 161.734 96.6299 158.902 92.6247L152.265 92.6247L161.747 104.969L133.389 116.604L129.49 147.007L101.21 135.182ZM161.747 104.969L158.902 92.6247L152.265 92.6247C155.989 96.259 157.809 100.218 156.886 103.666C155.073 110.43 143.134 113.621 129.706 110.931C128.765 110.742 127.8 111.105 127.215 111.867C126.632 112.628 126.53 113.654 126.957 114.515C133.029 126.79 133.036 139.148 126.973 142.648C120.909 146.149 110.211 139.963 102.618 128.567C102.087 127.768 101.146 127.342 100.195 127.467C99.2444 127.592 98.4463 128.247 98.1397 129.156C93.7537 142.131 85.0203 150.874 78.2575 149.062C71.495 147.247 68.3022 135.312 70.9921 121.882C71.1817 120.939 70.8173 119.969 70.0564 119.391C69.2952 118.807 68.2679 118.707 67.4081 119.132C55.134 125.206 42.7766 125.214 39.2756 119.15C35.7745 113.086 41.9604 102.388 53.3571 94.7951C54.1554 94.2633 54.5818 93.3232 54.457 92.3722C54.335 91.421 53.6769 90.6203 52.7679 90.3165C39.7943 85.9298 31.0519 77.1974 32.8614 70.4342C34.6743 63.6718 46.6127 60.48 60.042 63.1689C60.9827 63.3579 61.9492 62.9944 62.5328 62.2331C63.1164 61.4719 63.2171 60.4445 62.7916 59.5848C56.7183 47.3107 56.71 34.9533 62.774 31.4522C66.9012 29.0694 73.1764 31.1748 79.1582 36.3567C79.3002 33.1236 80.7564 31.1236 80.7564 31.1236L65.3202 25.5L60.2573 27.0931L56.3585 57.4967L28 69.1315L46.7418 93.3869L34.9165 121.667L65.32 125.565L76.9549 153.924L101.21 135.182L129.49 147.007L133.389 116.604L161.747 104.969Z" fill="#1DB954"/>
<path d="M66.1819 79.634L71.3233 68.821L77.851 56.7369C73.4813 59.2598 71.037 63.9602 71.3233 68.821C66.5554 69.8014 62.6476 73.3801 61.3407 78.2539C60.0339 83.1277 61.6322 88.1817 65.2705 91.4137C62.5922 95.4801 62.3577 100.774 64.8806 105.143C67.4035 109.513 72.1049 111.957 76.9657 111.67C77.9472 116.438 81.5242 120.345 86.3976 121.654C91.2718 122.959 96.3249 121.364 99.558 117.725C103.624 120.403 108.917 120.637 113.287 118.114C117.657 115.591 120.101 110.89 119.815 106.03C124.583 105.049 128.49 101.471 129.797 96.5968C130.585 93.6491 130.313 90.6361 129.17 87.9992C129.17 87.9992 127.996 89.4742 124.812 89.9992L129.797 96.5968L119.815 106.03L113.287 118.114L99.558 117.725L86.3976 121.654L81.9999 113L76.9657 111.67L64.8806 105.143L65.2705 91.4137L66.1819 79.634ZM124.812 89.9992C125.222 91.995 125.298 93.9397 124.936 95.2941C123.968 98.9022 120.682 101.357 116.945 101.264C116.141 101.243 115.375 101.609 114.885 102.248C114.395 102.885 114.241 103.719 114.468 104.492C115.525 108.078 114.005 111.887 110.77 113.755C107.535 115.623 103.476 115.034 100.899 112.326C100.344 111.743 99.5447 111.459 98.7472 111.565C97.9491 111.67 97.2491 112.15 96.8654 112.857C95.0782 116.14 91.3087 117.758 87.7002 116.792C84.0927 115.826 81.6371 112.541 81.7315 108.801C81.7541 107.995 81.3867 107.231 80.7478 106.741C80.11 106.251 79.276 106.097 78.5035 106.324C74.9168 107.382 71.1076 105.862 69.2397 102.627C67.3718 99.3913 67.9601 95.3325 70.6694 92.7551C71.2527 92.1998 71.5362 91.4004 71.4305 90.603C71.324 89.8017 70.8472 89.1036 70.1382 88.7211C66.8554 86.9356 65.2362 83.1651 66.2022 79.5565C67.1699 75.9484 70.4564 73.4933 74.1926 73.5867C74.9965 73.6079 75.763 73.242 76.2526 72.6031C76.7429 71.9653 76.8971 71.1313 76.6696 70.3588C75.7976 67.4009 76.6792 64.291 78.8308 62.2441C77.9959 60.4992 77.9959 59.4992 77.851 56.7369L71.3233 68.821L66.1819 79.634L65.2705 91.4137L64.8806 105.143L76.9657 111.67L81.9999 113L86.3976 121.654L99.558 117.725C99.558 117.725 111.51 118.114 113.287 118.114C114.676 118.113 119.815 106.03 119.815 106.03L129.797 96.5968L124.812 89.9992Z" fill="#1DB954"/>
<path d="M83.0677 78.4635C79.6662 83.2231 79.1364 89.7306 82.2468 95.118C86.4877 102.463 95.9151 104.99 103.261 100.749C106.412 98.9292 108.676 96.1551 109.9 93.0004C108.784 93.215 107.287 93.0496 107.287 93.0496L104.548 92.6013L103.261 100.749L93.4999 97.5625L82.2468 95.118L86.3804 82.6697C85.0733 82.1564 83.2189 78.8898 83.0677 78.4635ZM100.744 96.3895C95.8014 99.243 89.4594 97.5436 86.6059 92.6013C84.779 89.4369 84.8184 85.6987 86.3804 82.6697L82.2468 95.118L93.4999 97.5625L103.261 100.749L104.548 92.6013L107.287 93.0496C107.287 93.0496 105.597 92.8597 104.532 92.5973C103.654 94.1245 102.376 95.4472 100.744 96.3895Z" fill="#1DB954"/>
</svg>
