<svg xmlns="http://www.w3.org/2000/svg" xmlns:xlink="http://www.w3.org/1999/xlink" version="1.1" x="0px" y="0px" viewBox="0 0 100 125" style="enable-background:new 0 0 100 100;" xml:space="preserve"><g><g><path d="M57.3,80.9c0,1.8-1.6,3.3-3.7,3.3c-2,0-3.7-1.5-3.7-3.3c0-1.8,1.6-3.3,3.7-3.3c0.6,0,1.1,0.1,1.6,0.4v-7.9l-9.7,1.5v11.6    c0,1.8-1.6,3.3-3.7,3.3c-2,0-3.7-1.5-3.7-3.3s1.6-3.3,3.7-3.3c0.6,0,1.1,0.1,1.6,0.4V66.3l13.7-2.2V80.9z"/></g><g><path d="M6.3,40.1c-1.5,0-2.9-0.6-3.9-1.8c-2-2.2-1.8-5.5,0.4-7.5c26.1-23.6,68.4-23.6,94.5,0c2.2,2,2.3,5.3,0.4,7.5    c-2,2.2-5.3,2.3-7.5,0.4c-22.1-20-58.1-20-80.2,0C8.9,39.6,7.6,40.1,6.3,40.1z"/></g><g><path d="M18.3,52c-1.5,0-3-0.6-4-1.8c-1.9-2.2-1.7-5.6,0.5-7.5c19.4-16.9,51-16.9,70.5,0c2.2,1.9,2.5,5.3,0.5,7.5    c-1.9,2.2-5.3,2.5-7.5,0.5c-15.6-13.5-40.9-13.5-56.5,0C20.7,51.6,19.5,52,18.3,52z"/></g><g><path d="M69.8,64c-1.2,0-2.3-0.4-3.3-1.1c-8.9-7.1-24.1-7.1-33,0c-2.3,1.8-5.6,1.4-7.5-0.9c-1.8-2.3-1.4-5.6,0.9-7.5    c13-10.2,33.2-10.2,46.2,0c2.3,1.8,2.7,5.2,0.9,7.5C72.9,63.3,71.4,64,69.8,64z"/></g></g><text x="0" y="115" fill="#000000" font-size="5px" font-weight="bold" font-family="'Helvetica Neue', Helvetica, Arial-Unicode, Arial, Sans-serif">Created by Rediffusion</text><text x="0" y="120" fill="#000000" font-size="5px" font-weight="bold" font-family="'Helvetica Neue', Helvetica, Arial-Unicode, Arial, Sans-serif">from the Noun Project</text></svg>